<svg height="96" width="96" xmlns="http://www.w3.org/2000/svg" xmlns:xlink="http://www.w3.org/1999/xlink"><linearGradient id="a"><stop offset="0" stop-color="#fff"/><stop offset="1" stop-color="#fff" stop-opacity="0"/></linearGradient><linearGradient id="b"><stop offset="0" stop-color="#b4b4b4"/><stop offset="1" stop-color="#ebebeb"/></linearGradient><linearGradient id="c" gradientUnits="userSpaceOnUse" x1="36.357143" x2="36.357143" xlink:href="#a" y1="6" y2="63.893143"/><filter id="d" color-interpolation-filters="sRGB" height="1.384" width="1.384" x="-.192" y="-.192"><feGaussianBlur stdDeviation="5.28"/></filter><linearGradient id="e" gradientUnits="userSpaceOnUse" x1="48" x2="48" xlink:href="#a" y1="20.220806" y2="138.66119"/><radialGradient id="f" cx="48" cy="90.171875" gradientTransform="matrix(1.1573129 0 0 .99590774 -7.551021 .197132)" gradientUnits="userSpaceOnUse" r="42" xlink:href="#a"/><clipPath id="g"><rect height="84" rx="6" width="84" x="6" y="6"/></clipPath><linearGradient id="h" gradientUnits="userSpaceOnUse" x1="48" x2="48" y1="90" y2="5.987717"><stop offset="0" stop-color="#191919"/><stop offset="1" stop-color="#3c3c3c"/></linearGradient><linearGradient id="i" gradientTransform="matrix(1.0058652 0 0 .994169 100 0)" gradientUnits="userSpaceOnUse" x1="45.447727" x2="45.447727" y1="92.539597" y2="7.01654"><stop offset="0"/><stop offset="1" stop-opacity=".588235"/></linearGradient><linearGradient id="j" gradientTransform="matrix(1.0238095 0 0 1.0119048 -1.142857 -98.071429)" gradientUnits="userSpaceOnUse" x1="32.251034" x2="32.251034" xlink:href="#i" y1="6.131708" y2="90.238609"/><linearGradient id="k" gradientTransform="translate(0 -97)" gradientUnits="userSpaceOnUse" x1="32.251034" x2="32.251034" xlink:href="#i" y1="6.131708" y2="90.238609"/><linearGradient id="l" gradientTransform="matrix(0 -1 1 0 0 96)" gradientUnits="userSpaceOnUse" x1="16" x2="80" xlink:href="#b" y1="48" y2="48"/><radialGradient id="m" cx="48" cy="56" gradientUnits="userSpaceOnUse" r="16"><stop offset="0" stop-color="#414141"/><stop offset="1"/></radialGradient><linearGradient id="n" gradientUnits="userSpaceOnUse" x1="48.269566" x2="48.269566" xlink:href="#a" y1="32.608074" y2="69.905922"/><radialGradient id="o" cx="55.384617" cy="62.769234" gradientTransform="matrix(1.5384616 .00000006 -.00000007 1.8461538 -29.822489 -53.112435)" gradientUnits="userSpaceOnUse" r="24"><stop offset="0" stop-color="#15deff"/><stop offset="1" stop-color="#014177"/></radialGradient><linearGradient id="p" gradientTransform="matrix(0 1 -1 0 96 0)" gradientUnits="userSpaceOnUse" x1="22" x2="74" xlink:href="#b" y1="48" y2="48"/><clipPath id="q"><path d="m16.5 143.11764c0 68.61326 14.326888 124.2353 32 124.2353s32-55.62204 32-124.2353c0-68.613253-14.326888-124.235289-32-124.235289s-32 55.622036-32 124.235289zm8 0c0-51.459939 10.745166-93.176465 24-93.176465s24 41.716526 24 93.176465c0 51.45995-10.745166 93.17647-24 93.17647s-24-41.71652-24-93.17647z"/></clipPath><linearGradient gradientTransform="matrix(0 -3.8823529 1 0 .5 329.47058)" gradientUnits="userSpaceOnUse" x1="16" x2="80" xlink:href="#b" y1="48" y2="48"/><linearGradient id="r" gradientUnits="userSpaceOnUse" x1="49.957554" x2="49.957554" xlink:href="#a" y1="20.365503" y2="98.866722"/><g fill="url(#j)"><path d="m12-95.03125c-5.5110903 0-10.03125 4.52016-10.03125 10.03125v71c0 5.5110902 4.5201598 10.03125 10.03125 10.03125h72c5.51109 0 10.03125-4.5201597 10.03125-10.03125v-71c0-5.51109-4.52016-10.03125-10.03125-10.03125z" opacity=".08" transform="scale(1 -1)"/><path d="m12-94.03125c-4.971633 0-9.03125 4.059617-9.03125 9.03125v71c0 4.9716329 4.0596171 9.03125 9.03125 9.03125h72c4.971633 0 9.03125-4.059617 9.03125-9.03125v-71c0-4.971633-4.059617-9.03125-9.03125-9.03125z" opacity=".1" transform="scale(1 -1)"/><path d="m12-93c-4.4091333 0-8 3.590867-8 8v71c0 4.4091333 3.5908667 8 8 8h72c4.409133 0 8-3.5908667 8-8v-71c0-4.409133-3.590867-8-8-8z" opacity=".2" transform="scale(1 -1)"/><rect height="85" opacity=".3" rx="7" transform="scale(1 -1)" width="86" x="5" y="-92"/></g><rect fill="url(#k)" height="84" opacity=".45" rx="6" transform="scale(1 -1)" width="84" x="6" y="-91"/><rect fill="url(#h)" height="84" rx="6" width="84" x="6" y="6"/><path d="m48 15.03125c-18.198012 0-32.96875 14.770738-32.96875 32.96875s14.770738 32.96875 32.96875 32.96875 32.96875-14.770738 32.96875-32.96875-14.770738-32.96875-32.96875-32.96875z" opacity=".15" transform="translate(0 1)"/><path d="m12 6c-3.324 0-6 2.676-6 6v2 68 2c0 .334721.04135.6507.09375.96875.0487.295596.09704.596915.1875.875.00988.03038.020892.0636.03125.09375.098865.287771.2348802.547452.375.8125.1445918.273507.3156161.535615.5.78125s.3737765.473472.59375.6875c.439947.428056.94291.814526 1.5 1.09375.278545.139612.5734731.246947.875.34375-.2562018-.100222-.4867109-.236272-.71875-.375-.00741-.0044-.023866.0045-.03125 0-.031933-.0193-.062293-.04251-.09375-.0625-.120395-.0767-.2310226-.163513-.34375-.25-.1061728-.0808-.2132809-.161112-.3125-.25-.1779299-.161433-.3474596-.345388-.5-.53125-.1075789-.130255-.2183939-.265285-.3125-.40625-.025089-.03838-.038446-.08587-.0625-.125-.064763-.103032-.1302275-.204517-.1875-.3125-.1010083-.194706-.2056748-.415701-.28125-.625-.00796-.02181-.023589-.04055-.03125-.0625-.0318251-.09195-.0358045-.186831-.0625-.28125-.0303323-.106618-.0703894-.203031-.09375-.3125-.0728786-.341512-.125-.698205-.125-1.0625v-2-68-2c0-2.781848 2.2181517-5 5-5h2 68 2c2.781848 0 5 2.218152 5 5v2 68 2c0 .364295-.05212.720988-.125 1.0625-.04415.206893-.08838.397658-.15625.59375-.0077.02195-.0233.04069-.03125.0625-.06274.173739-.138383.367449-.21875.53125-.04158.0828-.07904.169954-.125.25-.0546.09721-.126774.18835-.1875.28125-.09411.140965-.204921.275995-.3125.40625-.143174.17445-.303141.346998-.46875.5-.01117.0102-.01998.02115-.03125.03125-.138386.125556-.285091.234436-.4375.34375-.102571.07315-.204318.153364-.3125.21875-.0074.0045-.02384-.0044-.03125 0-.232039.138728-.462548.274778-.71875.375.301527-.0968.596455-.204138.875-.34375.55709-.279224 1.060053-.665694 1.5-1.09375.219973-.214028.409366-.441865.59375-.6875s.355408-.507743.5-.78125c.14012-.265048.276135-.524729.375-.8125.01041-.03078.02133-.06274.03125-.09375.09046-.278085.1388-.579404.1875-.875.0524-.31805.09375-.634029.09375-.96875v-2-68-2c0-3.324-2.676-6-6-6z" fill="url(#c)" opacity=".2"/><path d="m48 13.90625c-18.803417 0-34.09375 15.290333-34.09375 34.09375s15.290333 34.09375 34.09375 34.09375 34.09375-15.290333 34.09375-34.09375-15.290333-34.09375-34.09375-34.09375z" opacity=".08" transform="translate(0 1)"/><path d="m12 90c-3.324 0-6-2.676-6-6v-2-68-2c0-.334721.04135-.6507.09375-.96875.0487-.295596.09704-.596915.1875-.875.00988-.03038.020892-.0636.03125-.09375.098865-.287771.2348802-.547452.375-.8125.1445918-.273507.3156161-.535615.5-.78125s.3737765-.473472.59375-.6875c.439947-.428056.94291-.814526 1.5-1.09375.278545-.139612.5734731-.246947.875-.34375-.2562018.100222-.4867109.236272-.71875.375-.00741.0044-.023866-.0045-.03125 0-.031933.0193-.062293.04251-.09375.0625-.120395.0767-.2310226.163513-.34375.25-.1061728.0808-.2132809.161112-.3125.25-.1779299.161433-.3474596.345388-.5.53125-.1075789.130255-.2183939.265285-.3125.40625-.025089.03838-.038446.08587-.0625.125-.064763.103032-.1302275.204517-.1875.3125-.1010083.194706-.2056748.415701-.28125.625-.00796.02181-.023589.04055-.03125.0625-.0318251.09195-.0358045.186831-.0625.28125-.0303323.106618-.0703894.203031-.09375.3125-.0728786.341512-.125.698205-.125 1.0625v2 68 2c0 2.781848 2.2181517 5 5 5h2 68 2c2.781848 0 5-2.218152 5-5v-2-68-2c0-.364295-.05212-.720988-.125-1.0625-.04415-.206893-.08838-.397658-.15625-.59375-.0077-.02195-.0233-.04069-.03125-.0625-.06274-.173739-.138383-.367449-.21875-.53125-.04158-.0828-.07904-.169954-.125-.25-.0546-.09721-.126774-.18835-.1875-.28125-.09411-.140965-.204921-.275995-.3125-.40625-.143174-.17445-.303141-.346998-.46875-.5-.01117-.0102-.01998-.02115-.03125-.03125-.138386-.125556-.285091-.234436-.4375-.34375-.102571-.07315-.204318-.153364-.3125-.21875-.0074-.0045-.02384.0044-.03125 0-.232039-.138728-.462548-.274778-.71875-.375.301527.0968.596455.204138.875.34375.55709.279224 1.060053.665694 1.5 1.09375.219973.214028.409366.441865.59375.6875s.355408.507743.5.78125c.14012.265048.276135.524729.375.8125.01041.03078.02133.06274.03125.09375.09046.278085.1388.579404.1875.875.0524.31805.09375.634029.09375.96875v2 68 2c0 3.324-2.676 6-6 6z" fill="url(#f)" opacity=".15"/><path d="m80 48a32 32 0 1 1 -64 0 32 32 0 1 1 64 0z" opacity=".3" transform="translate(0 1)"/><rect height="66" rx="12" style="opacity:.1;stroke:#fff;stroke-width:.5;stroke-linecap:round;clip-path:url(#g);fill:url(#e);filter:url(#d)" width="66" x="15" y="15"/><g><path d="m72 48a24 24 0 1 1 -48 0 24 24 0 1 1 48 0z" fill="url(#o)" transform="matrix(1.0833333 0 0 1.0833333 -3.999999 -3.999998)"/><path d="m48.28125 17.03125c-17.080523 0-30.96875 13.888227-30.96875 30.96875s13.888227 30.96875 30.96875 30.96875c17.08052 0 30.96875-13.888226 30.96875-30.96875s-13.88823-30.96875-30.96875-30.96875zm-.28125 9.90625c11.657737 0 21.0625 9.404759 21.0625 21.0625s-9.404763 21.0625-21.0625 21.0625c-11.657742 0-21.0625-9.404758-21.0625-21.0625s9.404758-21.0625 21.0625-21.0625zm0 2.125c-10.438626 0-18.9375 8.498874-18.9375 18.9375s8.498874 18.9375 18.9375 18.9375c10.43863 0 18.9375-8.498874 18.9375-18.9375s-8.49887-18.9375-18.9375-18.9375z" opacity=".08"/><path d="m48.28125 18c-16.549797 0-30 13.450203-30 30s13.450203 30 30 30c16.549794 0 30-13.450202 30-30s-13.450206-30-30-30zm-.28125 7.96875c12.18539 0 22.03125 9.845856 22.03125 22.03125s-9.84586 22.03125-22.03125 22.03125c-12.185395 0-22.03125-9.845855-22.03125-22.03125s9.845855-22.03125 22.03125-22.03125zm0 4.0625c-9.907257 0-17.96875 8.061493-17.96875 17.96875s8.061493 17.96875 17.96875 17.96875c9.907261 0 17.96875-8.061493 17.96875-17.96875s-8.061489-17.96875-17.96875-17.96875z" opacity=".2"/><path d="m48.28125 19c-16.008635 0-29 12.991365-29 29s12.991365 29 29 29c16.008631 0 29-12.991365 29-29s-12.991369-29-29-29zm-.28125 5.96875c12.725443 0 23.03125 10.305803 23.03125 23.03125s-10.305807 23.03125-23.03125 23.03125c-12.725447 0-23.03125-10.305803-23.03125-23.03125s10.305803-23.03125 23.03125-23.03125zm0 6.0625c-9.365943 0-16.96875 7.602807-16.96875 16.96875s7.602807 16.96875 16.96875 16.96875c9.365947 0 16.96875-7.602807 16.96875-16.96875s-7.602803-16.96875-16.96875-16.96875z" opacity=".4"/><path d="m48 24c-13.254834 0-24 10.745166-24 24 0 .165582-.0033.335217 0 .5.263839-13.026064 10.910748-23.5 24-23.5s23.736161 10.473936 24 23.5c.003338-.164783 0-.334418 0-.5 0-13.254834-10.745166-24-24-24z" opacity=".6"/></g><g><path d="m16 48c0 17.673112 14.326888 32 32 32s32-14.326888 32-32-14.326888-32-32-32-32 14.326888-32 32zm8 0c0-13.254834 10.745166-24 24-24s24 10.745166 24 24-10.745166 24-24 24-24-10.745166-24-24z" fill="url(#l)"/><path d="m64 48a16 16 0 1 1 -32 0 16 16 0 1 1 32 0z" fill="url(#m)"/><path d="m64 48a16 16 0 1 1 -32 0 16 16 0 1 1 32 0z" fill="url(#n)" opacity=".6" transform="matrix(.69078031 0 0 .46875 14.842545 18)"/><path d="m33.03125 47.5c-.00556.167863-.03125.330784-.03125.5 0 8.284271 6.715729 15 15 15s15-6.715729 15-15c0-.169216-.02569-.332137-.03125-.5-.266646 8.050182-6.853695 14.5-14.96875 14.5s-14.702104-6.449818-14.96875-14.5z" fill="#fff" opacity=".2"/><path d="m43.385654 39.194982c-1.811037.09931-3.312486 1.857199-3.158274 3.703296-.0021 4.228558.0041 8.45718-.0031 12.685697.106053 1.610347 1.403091 3.038094 2.986641 3.20306 1.377683.246808 2.518466-.673266 3.649779-1.312187 3.069888-1.819473 6.168617-3.621963 9.220496-5.452039 1.456019-.826923 2.119105-2.802838 1.435579-4.356621-.505652-1.409641-1.950176-1.950411-3.106409-2.679868-3.064852-1.796199-6.111736-3.629002-9.187827-5.402306-.567557-.281702-1.195461-.469904-1.836885-.389032z" opacity=".08"/><path d="m38.5625 17.96875c-.05334.004-.541023.05349-.59375.0625-.05273.009-.542096.142352-.59375.15625-.05165.0139-.543623.168833-.59375.1875-.05013.01867-.514338.195477-.5625.21875-.04816.02327-.485475.284825-.53125.3125-.04577.02767-.457014.311916-.5.34375-.04299.03183-.460179.339285-.5.375-.03982.03571-.401194.398218-.4375.4375-.03631.03928-.342526.426245-.375.46875-.03247.0425-.315394.454644-.34375.5-.02836.04536-.288509.483441-.3125.53125-.02399.04781-.230585.512657-.25.5625-.01942.04984-.172831.51106-.1875.5625-.01467.05144-.146456.541164-.15625.59375-.0098.05259-.05767.571728-.0625.625-.0048.05327-.03142.54026-.03125.59375v15.5 15.5c.000137.07472.05262.769687.0625.84375.0099.07406.13679.771609.15625.84375.01946.07214.252546.743514.28125.8125.0287.06899.337542.716598.375.78125.03746.06465.423179.628287.46875.6875.04557.05921.509594.603487.5625.65625.05291.05276.596913.51709.65625.5625.05934.04541.653997.431468.71875.46875.06475.03728.680937.346483.75.375.06906.02852.740307.261986.8125.28125.07219.01926.769661.146568.84375.15625.07409.0097.769031.06256.84375.0625.07472-.000065.769678-.05269.84375-.0625.07407-.0098.771591-.13686.84375-.15625.07216-.01939.743487-.252612.8125-.28125.06901-.02864.716562-.337605.78125-.375l13.40625-7.75 13.40625-7.75c.06433-.0375.628591-.454452.6875-.5.05891-.04555.603763-.50968.65625-.5625.05249-.05282.517325-.565805.5625-.625.04518-.0592.431654-.654184.46875-.71875.0371-.06457.346613-.681159.375-.75.02839-.06884.262053-.740553.28125-.8125.0192-.07195.146569-.769918.15625-.84375.0097-.07383.0625-.769286.0625-.84375 0-.07446-.05282-.769918-.0625-.84375-.0097-.07383-.137053-.771803-.15625-.84375-.0192-.07195-.252863-.743659-.28125-.8125-.02839-.06884-.337904-.685434-.375-.75-.0371-.06457-.423575-.659555-.46875-.71875-.04518-.0592-.510013-.57218-.5625-.625-.05249-.05282-.597341-.516952-.65625-.5625-.05891-.04555-.62317-.462497-.6875-.5l-13.40625-7.75-13.40625-7.75v.03125c-.0739-.0436-.79541-.405454-.875-.4375-.07959-.03205-.854011-.292726-.9375-.3125-.08349-.01977-.883242-.149193-.96875-.15625-.08551-.0071-.883149-.0058-.96875 0a2.4104435 2.4104435 0 0 0 -.03125 0z" opacity=".15" transform="matrix(.39946539 0 0 .40763698 28.043686 32.698268)"/><path d="m38.75 20.375a4.1236838 4.1236838 0 0 0 -3.8125 4.125v15.5 15.5a4.1236838 4.1236838 0 0 0 6.1875 3.5625l13.40625-7.75 13.40625-7.75a4.1236838 4.1236838 0 0 0 0-7.125l-13.40625-7.75-13.40625-7.75a4.1236838 4.1236838 0 0 0 -2.375-.5625z" opacity=".3" transform="matrix(.39946539 0 0 .40763698 28.043686 32.698268)"/><path d="m38.75 20.375a4.1236838 4.1236838 0 0 0 -3.8125 4.125v15.5 15.5a4.1236838 4.1236838 0 0 0 6.1875 3.5625l13.40625-7.75 13.40625-7.75a4.1236838 4.1236838 0 0 0 0-7.125l-13.40625-7.75-13.40625-7.75a4.1236838 4.1236838 0 0 0 -2.375-.5625z" fill="url(#r)" transform="matrix(.39946539 0 0 .40763698 28.043686 31.698268)"/><path d="m48 16c-17.673112 0-32 14.326888-32 32 0 .166668-.0025.333936 0 .5.266707-17.442958 14.493556-31.5 32-31.5s31.733293 14.057042 32 31.5c.002539-.166064 0-.333332 0-.5 0-17.673112-14.326888-32-32-32z" fill="#fff" opacity=".6"/><path d="m74 48c0-14.359403-11.640597-26-26-26s-26 11.640597-26 26 11.640597 26 26 26 26-11.640597 26-26zm-2 0c0 13.254834-10.745166 24-24 24s-24-10.745166-24-24 10.745166-24 24-24 24 10.745166 24 24z" fill="url(#p)"/><g clip-path="url(#q)" transform="matrix(.70710678 .70710678 -.18213357 .18213357 39.771848 -12.361206)"><path d="m48 15h1v66h-1z" opacity=".6"/><path d="m49 15h1v66h-1z" opacity=".2"/><path d="m47 15h1v66h-1z" fill="#fff" opacity=".4"/></g><g clip-path="url(#q)" transform="matrix(-.70710678 .70710678 .18213357 .18213357 56.228152 -12.361206)"><path d="m48 15h1v66h-1z" opacity=".6"/><path d="m49 15h1v66h-1z" opacity=".2"/><path d="m47 15h1v66h-1z" fill="#fff" opacity=".4"/></g><g clip-path="url(#q)" transform="matrix(-.70710678 -.70710678 .18213357 -.18213357 56.228151 108.36121)"><path d="m48 15h1v66h-1z" opacity=".6"/><path d="m49 15h1v66h-1z" opacity=".2"/><path d="m47 15h1v66h-1z" fill="#fff" opacity=".4"/></g><g clip-path="url(#q)" transform="matrix(.70710678 -.70710678 -.18213357 -.18213357 39.771847 108.36121)"><path d="m48 15h1v66h-1z" opacity=".6"/><path d="m49 15h1v66h-1z" opacity=".2"/><path d="m47 15h1v66h-1z" fill="#fff" opacity=".4"/></g><g fill="#666"><path d="m21.036712 50.099322-1.057921.835038.09339.852321 1.135781-.124448.04063.370828-2.735581.299738-.141041-1.287218c-.01702-.155319-.01393-.294504.0093-.417556.02176-.1242.06182-.230761.120193-.31968.05837-.08892.133757-.16005.226149-.213402.0924-.05335.199429-.08669.321094-.100021.08672-.0095.173568-.0059.260534.01075.08683.01538.168167.04642.244015.09312.07585.04671.143627.109358.203323.187957.0597.0786.106355.175661.139968.291174l1.093402-.905729.0468.427131m-1.943315.267944c-.08284.0091-.153111.03119-.210827.06633-.05771.03514-.103652.08209-.137823.140849-.03546.0589-.05864.128246-.06955.208032-.0122.07993-.01291.16908-.0021.267449l.09637.879501 1.009583-.11062-.09807-.895034c-.01163-.106134-.03464-.196613-.06904-.271439-.03569-.07468-.07953-.13406-.131513-.178142-.05212-.04537-.111177-.07623-.177154-.09258-.06611-.01764-.136062-.02242-.209841-.01434"/><path d="m20.972314 49.154842-2.751894.01802-.01367-2.087846.304681-.002.01123 1.714807.882793-.0058-.01046-1.597622.300775-.002.01046 1.597622.958964-.0063-.01175-1.794883.304681-.002.0142 2.167922"/><path d="m21.258083 43.873346-.05042.442448-1.790766.275568c-.05078.0086-.110767.01752-.179958.02667-.06904.0079-.134701.01479-.196981.0208-.07292.0074-.147138.01469-.222651.0218.07312.02537.144372.04987.213755.0735.06048.02131.122821.04349.18703.06653.06421.02305.120086.04448.167623.06432l1.682402.675308-.05042.442449-2.826032.493733.04401-.386172 1.792756-.293033c.08401-.0127.167226-.02419.249647-.03445.08257-.01156.156361-.02084.221374-.02785.07695-.0083.149875-.01568.218769-.02225-.08705-.02958-.172741-.05965-.257061-.09023-.03519-.01318-.07232-.02659-.111397-.04022-.03907-.01362-.0775-.02718-.115278-.04066-.03763-.01477-.0734-.02868-.107295-.04171-.03504-.01448-.067-.02729-.09587-.03845l-1.647693-.669387.04047-.355124 1.756056-.281489c.03064-.0044.06459-.009.101844-.01395.03611-.0064.07409-.01187.113929-.0165.0387-.0061.07861-.01135.119752-.01584.04114-.0045.08033-.0092.117589-.01412.08904-.01082.179942-.02077.272713-.02986.000147-.0013-.02118-.0096-.06399-.02498-.0441-.01551-.0989-.03486-.164406-.05805-.0655-.02319-.136034-.04826-.211593-.07522-.07671-.0284-.147588-.05613-.21265-.08321l-1.681738-.68113.04401-.386172 2.642477 1.116935"/><path d="m44.2293 21.26196-.382587.05638-1.512282-2.558805.388383-.05724 1.036068 1.805737c.02786.05512.05573.110241.0836.16536.02768.05383.05256.102152.07467.144959.02582.05016.0508.09912.07495.146892.0084-.04994.01778-.102647.02803-.15812.0088-.04736.01806-.100714.02774-.160052.01097-.05953.02285-.12182.03563-.18688l.467226-2.027285.388383-.05724-.709809 2.886287"/><path d="m48.224781 19.57785c.0086.214671-.01475.411081-.07013.589231-.05409.178099-.137167.331951-.249235.461558-.112073.129608-.251315.231639-.417726.306093-.166416.07446-.356958.115998-.571627.12463-.22638.0091-.4262-.01805-.599459-.08145-.173313-.0647-.319102-.157879-.437365-.279528-.118317-.12295-.209603-.270443-.273859-.44248-.06425-.172035-.100542-.361485-.10886-.56835-.0086-.214669.0135-.409726.06639-.585171.05289-.175442.134798-.32599.245725-.451644.110873-.12695.24957-.226353.416089-.298208.167766-.0732.361586-.114227.581462-.123071.218572-.0088.413759.0166.585563.07614.173101.0595.319357.148099.438768.265789.120707.117644.214464.26178.281272.432408.0668.170633.104469.361982.112999.574049m-.380552.0153c-.0066-.16523-.03416-.314636-.08253-.448218-.04708-.133632-.114182-.246912-.201317-.339843-.08584-.09298-.190951-.16303-.315339-.210156-.124391-.04712-.266599-.06747-.426624-.06103-.163932.0066-.306649.03839-.428154.0954-.121506.05701-.221956.135331-.30135.234953-.07809.09957-.135237.217851-.171429.354831-.03489.136931-.04901.288011-.04237.45324.0066.165232.03355.315965.08073.4522.04843.134882.115636.250765.20163.347648.08724.09553.193135.168809.317683.219836.125794.04967.268705.07129.428733.06486.171735-.0069.318277-.04082.439627-.10173.122648-.06097.221666-.142484.297055-.244554.07663-.103423.131044-.224847.163231-.364275.03348-.139477.04696-.290531.04042-.453161"/><path d="m48.799457 20.99871.16196-2.747183.3724.02196-.144028 2.443023 1.388215.08184-.01793.30416-1.760615-.103797"/><path d="m51.056148 21.171893.05167-.424601.37807.04601-.05168.424602-.378069-.04601"/><path d="m54.438196 20.559713-.187956.814534-.279758-.06456.187956-.814533-.806921-.1862.06412-.277854.806921.186199.187955-.814533.279758.06455-.187956.814533.806921.186199-.06412.277855-.80692-.1862"/><path d="m77.198017 44.381312-1.017659.108605.162907 1.526488-.306851.03275-.162907-1.526488-1.108938.118346-.03959-.370941 2.736414-.292031.207468 1.944039-.302967.03233-.167881-1.573099"/><path d="m74.963288 49.327953.0038-.445297 1.752052-.461619c.0496-.0139.108323-.02903.176175-.04537.06784-.01505.13241-.02882.193719-.04132.07174-.01502.144791-.03002.219143-.04501-.07538-.01757-.148802-.03448-.220279-.05071-.06238-.01486-.1267-.03038-.192968-.04657-.06627-.01619-.124085-.03166-.173439-.0464l-1.74388-.495378.0038-.445296 2.758774-.787019-.0033.388657-1.752202.479197c-.08222.02143-.163773.04157-.244666.06041-.0809.02014-.153317.0371-.217239.05088-.07566.01628-.147408.03129-.215236.04504.08967.0203.178039.04123.265098.06281.03638.0094.07471.01887.114997.02833.04028.0095.07992.01891.118903.02836.03897.01075.076.02083.111074.03025.03637.01073.06949.02012.09937.02819l1.708742.493124-.0031.357409-1.716914.463873c-.03001.0076-.06329.01573-.09982.02454-.03524.01011-.07244.01956-.111574.02835-.03785.01009-.07699.01952-.117434.02829-.04044.0088-.07893.01755-.115464.02636-.08741.02009-.176776.0395-.268085.05826-.000011.0013.02207.0073.06625.01814.04548.0108.102009.02431.169582.04051.06757.0162.140341.03375.218308.05265.07926.02021.152655.04036.220195.06048l1.743831.501236-.0033.388658-2.744932-.834015"/><path d="m75.964013 53.011903c-.227153-.03032-.423282-.09131-.588388-.182966-.163815-.09149-.296523-.20444-.398123-.338852-.100309-.134245-.169941-.286724-.208896-.457439-.03784-.169256-.04427-.347454-.01929-.534595l.136174-1.020249 2.727763.364077-.120411.902156c-.02808.210372-.08038.400436-.156893.570193-.0754.171215-.176478.313389-.303234.426522-.125469.113301-.276831.194248-.454087.242841-.177431.04988-.382303.05932-.614617.02831m.04961-.371704c.18456.02463.345549.01919.482967-.01633.138707-.03535.25638-.09518.353021-.179483.09664-.08431.173187-.190352.229651-.318117.05775-.127598.09722-.27077.118412-.429516l.07003-.524645-2.135361-.285008-.08114.607891c-.01912.143259-.01355.27865.01672.406173.0301.12881.08502.243858.164771.345145.07975.101282.184668.186222.314758.254819.130088.06859.285478.114948.466168.139067"/><path d="m51.636461 74.753123.382736-.05536 1.505421 2.562847-.388535.0562-1.031225-1.808506c-.02772-.05519-.05544-.11039-.08315-.165583-.02753-.05391-.05229-.102293-.07428-.145159-.02568-.05023-.05054-.09926-.07456-.147092-.0086.04992-.01805.102598-.02845.158044-.0089.04734-.01833.100665-.02817.159977-.01113.0595-.02317.121758-.03613.186784l-.472656 2.026026-.388535.0562.71754-2.884375"/><path d="m47.636476 76.426425c-.008-.214694.01587-.41104.07173-.589038.05457-.177951.138069-.331577.250489-.460879.112425-.129303.251944-.230955.418557-.304956.166618-.074.357272-.115027.571963-.123076.226405-.0085.42615.01921.599236.08308.173137.06517.318671.158747.436604.280717.117982.12327.208867.271011.272654.443222.06379.172209.09956.361757.107315.568644.008.214692-.01461.409688-.06798.584989-.05337.175297-.135683.325621-.246951.450974-.111218.126648-.250184.225674-.416898.297076-.167965.07275-.361896.113243-.581795.121489-.218595.0082-.413713-.01772-.585354-.07774-.172939-.05997-.318953-.148966-.438043-.266981-.120387-.117971-.213752-.262361-.280096-.43317-.06634-.170814-.103484-.362265-.111438-.574354m.380592-.01427c.0062.165247.0333.314727.08131.44844.04671.133759.11351.247222.200392.340389.08559.09321.190508.163548.314767.211013.124263.04746.266415.06819.426457.06219.163949-.0061.306752-.03756.428411-.09424.121661-.05668.222324-.134728.301988-.234134.07836-.09936.135829-.217482.172393-.354363.03526-.136835.0498-.287876.0436-.453123-.0062-.16525-.0327-.316056-.0795-.452418-.04806-.135014-.114954-.251079-.200685-.348195-.08698-.09577-.192675-.169334-.317084-.220698-.125658-.05002-.26851-.07202-.428555-.06602-.171753.0064-.318387.03995-.439902.100535-.122813.06063-.222052.141881-.297719.243745-.07691.103214-.131654.22449-.16422.36383-.03386.139386-.04775.290402-.04165.45305"/><path d="m47.065622 75.004007-.169489 2.746729-.372338-.02298.150723-2.44262-1.387985-.08565.01877-.30411 1.760324.108622"/><path d="m44.809293 74.824625-.05284.424458-.377942-.04705.05284-.424458z"/><path d="m43.742266 75.598513-.05271.308022-.962569-.164726.05271-.308023z"/></g></g></svg>